<svg width="15" height="15" viewBox="0 0 15 15" fill="none" xmlns="http://www.w3.org/2000/svg">
<path d="M3.45312 14.7212H12.2861C13.1211 14.7212 13.7607 14.499 14.2051 14.0547C14.6494 13.6152 14.8716 12.9805 14.8716 12.1504V3.28809C14.8716 2.45801 14.6494 1.82324 14.2051 1.38379C13.7607 0.939453 13.1211 0.717285 12.2861 0.717285H3.45312C2.61816 0.717285 1.97852 0.939453 1.53418 1.38379C1.08984 1.82324 0.867676 2.45801 0.867676 3.28809V12.1504C0.867676 12.9805 1.08984 13.6152 1.53418 14.0547C1.97852 14.499 2.61816 14.7212 3.45312 14.7212ZM3.6582 12.8315C3.36523 12.8315 3.14062 12.7583 2.98438 12.6118C2.83301 12.4653 2.75732 12.2358 2.75732 11.9233V3.51514C2.75732 3.20264 2.83301 2.97314 2.98438 2.82666C3.14062 2.68018 3.36523 2.60693 3.6582 2.60693H12.0811C12.374 2.60693 12.5962 2.68018 12.7476 2.82666C12.9038 2.97314 12.9819 3.20264 12.9819 3.51514V11.9233C12.9819 12.2358 12.9038 12.4653 12.7476 12.6118C12.5962 12.7583 12.374 12.8315 12.0811 12.8315H3.6582ZM11.6929 7.70459C11.6929 7.45068 11.5928 7.22852 11.3926 7.03809L8.89502 4.64307C8.74365 4.49658 8.56299 4.42334 8.35303 4.42334C8.15283 4.42334 7.98682 4.4917 7.85498 4.62842C7.72803 4.76025 7.66455 4.93115 7.66455 5.14111C7.66455 5.35107 7.74268 5.52686 7.89893 5.66846L8.71924 6.42285L9.45898 6.96484L8.02344 6.88428H4.8374C4.61279 6.88428 4.42725 6.96484 4.28076 7.12598C4.13428 7.28223 4.06104 7.4751 4.06104 7.70459C4.06104 7.93896 4.13428 8.13672 4.28076 8.29785C4.42725 8.4541 4.61279 8.53223 4.8374 8.53223H8.02344L9.46631 8.44434L8.73389 8.99365L7.89893 9.74805C7.74268 9.875 7.66455 10.0508 7.66455 10.2754C7.66455 10.4854 7.72803 10.6587 7.85498 10.7954C7.98682 10.9321 8.15283 11.0005 8.35303 11.0005C8.56299 11.0005 8.74365 10.9248 8.89502 10.7734L11.3926 8.37842C11.5928 8.18799 11.6929 7.96338 11.6929 7.70459Z" fill="black"/>
</svg>
