<svg width="15" height="15" viewBox="0 0 15 15" fill="none" xmlns="http://www.w3.org/2000/svg">
<path d="M3.45312 14.7212H12.2861C13.1211 14.7212 13.7607 14.499 14.2051 14.0547C14.6494 13.6152 14.8716 12.9805 14.8716 12.1504V3.28809C14.8716 2.45801 14.6494 1.82324 14.2051 1.38379C13.7607 0.939453 13.1211 0.717285 12.2861 0.717285H3.45312C2.61816 0.717285 1.97852 0.939453 1.53418 1.38379C1.08984 1.82324 0.867676 2.45801 0.867676 3.28809V12.1504C0.867676 12.9805 1.08984 13.6152 1.53418 14.0547C1.97852 14.499 2.61816 14.7212 3.45312 14.7212ZM3.6582 12.8315C3.36523 12.8315 3.14062 12.7583 2.98438 12.6118C2.83301 12.4653 2.75732 12.2358 2.75732 11.9233V3.51514C2.75732 3.20264 2.83301 2.97314 2.98438 2.82666C3.14062 2.68018 3.36523 2.60693 3.6582 2.60693H12.0811C12.374 2.60693 12.5962 2.68018 12.7476 2.82666C12.9038 2.97314 12.9819 3.20264 12.9819 3.51514V11.9233C12.9819 12.2358 12.9038 12.4653 12.7476 12.6118C12.5962 12.7583 12.374 12.8315 12.0811 12.8315H3.6582ZM6.27295 11.2861C6.3999 11.4082 6.56836 11.4692 6.77832 11.4692C6.99316 11.4644 7.1665 11.3984 7.29834 11.2715L10.1768 8.57617C10.3379 8.4248 10.4453 8.24414 10.499 8.03418C10.5576 7.81934 10.5576 7.60693 10.499 7.39697C10.4453 7.18213 10.3379 6.99902 10.1768 6.84766L7.29834 4.16699C7.15186 4.02539 6.98096 3.95459 6.78564 3.95459C6.59033 3.94971 6.42676 4.01318 6.29492 4.14502C6.14355 4.28174 6.06543 4.45508 6.06055 4.66504C6.05566 4.87012 6.12646 5.04346 6.27295 5.18506L8.98291 7.71191L6.27295 10.2461C6.13135 10.3828 6.05811 10.5537 6.05322 10.7588C6.04834 10.9639 6.12158 11.1396 6.27295 11.2861Z" fill="black"/>
</svg>
