<svg width="15" height="15" viewBox="0 0 15 15" fill="none" xmlns="http://www.w3.org/2000/svg">
<path d="M3.45312 14.7212H12.2861C13.1211 14.7212 13.7607 14.499 14.2051 14.0547C14.6494 13.6152 14.8716 12.9805 14.8716 12.1504V3.28809C14.8716 2.45801 14.6494 1.82324 14.2051 1.38379C13.7607 0.939453 13.1211 0.717285 12.2861 0.717285H3.45312C2.61816 0.717285 1.97852 0.939453 1.53418 1.38379C1.08984 1.82324 0.867676 2.45801 0.867676 3.28809V12.1504C0.867676 12.9805 1.08984 13.6152 1.53418 14.0547C1.97852 14.499 2.61816 14.7212 3.45312 14.7212ZM3.6582 12.8315C3.36523 12.8315 3.14062 12.7583 2.98438 12.6118C2.83301 12.4653 2.75732 12.2358 2.75732 11.9233V3.51514C2.75732 3.20264 2.83301 2.97314 2.98438 2.82666C3.14062 2.68018 3.36523 2.60693 3.6582 2.60693H12.0811C12.374 2.60693 12.5962 2.68018 12.7476 2.82666C12.9038 2.97314 12.9819 3.20264 12.9819 3.51514V11.9233C12.9819 12.2358 12.9038 12.4653 12.7476 12.6118C12.5962 12.7583 12.374 12.8315 12.0811 12.8315H3.6582ZM9.35645 11.2861C9.50781 11.1396 9.58105 10.9639 9.57617 10.7588C9.57129 10.5537 9.49805 10.3828 9.35645 10.2461L6.64648 7.71191L9.35645 5.18506C9.50293 5.04346 9.57373 4.87012 9.56885 4.66504C9.56396 4.45508 9.48584 4.28174 9.33447 4.14502C9.20264 4.01318 9.03906 3.94971 8.84375 3.95459C8.64844 3.95459 8.47754 4.02539 8.33105 4.16699L5.45996 6.84766C5.29395 6.99902 5.18164 7.18213 5.12305 7.39697C5.06934 7.60693 5.06934 7.81934 5.12305 8.03418C5.18164 8.24414 5.29395 8.4248 5.45996 8.57617L8.33105 11.2715C8.46289 11.3984 8.63379 11.4644 8.84375 11.4692C9.05859 11.4692 9.22949 11.4082 9.35645 11.2861Z" fill="black"/>
</svg>
