<svg width="17" height="17" viewBox="0 0 17 17" fill="none" xmlns="http://www.w3.org/2000/svg">
<path d="M9.19238 15.3301L15.9463 8.56934C16.1377 8.37793 16.279 8.20247 16.3701 8.04297C16.4658 7.87891 16.5273 7.69889 16.5547 7.50293C16.5866 7.30697 16.6025 7.06543 16.6025 6.77832V4.19434C16.6025 3.92546 16.5775 3.70215 16.5273 3.52441C16.4818 3.34212 16.3997 3.17122 16.2812 3.01172C16.1628 2.84766 16.0033 2.66309 15.8027 2.45801L14.2441 0.90625C14.0391 0.705729 13.8568 0.546224 13.6973 0.427734C13.5378 0.309245 13.3669 0.227214 13.1846 0.181641C13.0068 0.13151 12.7858 0.106445 12.5215 0.106445H9.93066C9.64355 0.106445 9.40202 0.122396 9.20605 0.154297C9.01465 0.186198 8.83919 0.25 8.67969 0.345703C8.52018 0.441406 8.34473 0.584961 8.15332 0.776367L1.39258 7.53027C0.85026 8.07259 0.576823 8.63542 0.572266 9.21875C0.572266 9.80208 0.847982 10.3695 1.39941 10.9209L5.80859 15.3232C6.36003 15.8747 6.92513 16.1481 7.50391 16.1436C8.08724 16.1436 8.65007 15.8724 9.19238 15.3301ZM8.09863 13.9287C7.70215 14.3252 7.30339 14.3229 6.90234 13.9219L2.79395 9.82031C2.58887 9.61523 2.48861 9.41471 2.49316 9.21875C2.49772 9.01823 2.5957 8.81999 2.78711 8.62402L9.41113 2.01367C9.47949 1.94531 9.54557 1.89518 9.60938 1.86328C9.67773 1.82682 9.76204 1.80859 9.8623 1.80859H12.4189C12.5967 1.80859 12.7471 1.87012 12.8701 1.99316L14.7158 3.83887C14.8389 3.96191 14.9004 4.11003 14.9004 4.2832V6.84668C14.9004 6.95605 14.8844 7.04492 14.8525 7.11328C14.8252 7.18164 14.7796 7.24772 14.7158 7.31152L8.09863 13.9287ZM11.585 6.17676C11.8857 6.17676 12.1364 6.07422 12.3369 5.86914C12.542 5.66406 12.6445 5.41569 12.6445 5.12402C12.6445 4.82324 12.542 4.57259 12.3369 4.37207C12.1364 4.16699 11.8857 4.06445 11.585 4.06445C11.2887 4.06445 11.0381 4.16699 10.833 4.37207C10.6325 4.57259 10.5322 4.82324 10.5322 5.12402C10.5322 5.41569 10.6325 5.66406 10.833 5.86914C11.0381 6.07422 11.2887 6.17676 11.585 6.17676Z" fill="black"/>
</svg>
