<svg width="512" height="512" viewBox="0 0 512 512" fill="none" xmlns="http://www.w3.org/2000/svg">
<rect width="512" height="512" fill="white"/>
<path d="M182.675 260.69C165.94 277.443 159.331 295.591 158.118 302.571C158.778 288.476 159.491 276.458 160.232 265.977C162.554 233.131 165.145 215.374 167.213 196.049C169.032 186.944 174.489 182.614 174.489 176.019C174.489 167.825 169.032 177.84 163.575 187.855L158.118 196.959C155.176 201.511 154.48 205.153 156.299 205.153C158.118 205.153 160.847 201.511 160.847 205.153C161.756 215.168 154.48 290.735 151.752 318.049C149.023 345.362 152.661 338.989 154.48 331.706C156.299 324.422 156.299 305.302 172.67 282.541C188.95 259.907 188.293 265.052 187.24 273.298L187.223 273.437C186.061 282.541 186.061 293.179 187.223 315.03C187.901 327.776 191.821 328.383 196.975 326.866C198.794 326.562 203.341 324.135 208.798 312.299C217.374 293.699 216.327 302.571 218.146 307.123C219.965 311.676 226.332 308.944 235.427 297.108C244.522 285.273 242.703 284.362 242.703 300.75C242.703 313.861 250.889 305.303 253.617 300.75C256.346 295.288 263.44 279.081 269.988 257.959C276.537 236.837 279.387 242.481 279.084 247.944C278.477 258.566 277.265 281.995 277.265 290.735C277.265 301.661 277.265 312.586 285.45 300.75C301.458 281.085 307.279 286.183 307.279 290.735C307.279 297.732 303.277 305.667 298.183 310.765C290.907 318.049 285.198 317.761 295.455 297.108C298.262 291.456 293.788 296.821 291.564 300.463C281.56 316.851 288.646 321.986 297.274 316.228C308.188 308.944 312.671 297.139 313.645 290.735C315.212 280.433 299.75 277.702 290.907 287.093C281.625 296.953 281.435 297.108 281.812 287.093C283.025 254.924 285.45 189.311 285.45 184.213C285.45 177.84 279.993 173.287 279.993 188.765C277.265 227.627 260.287 280.13 250.889 299.552C251.495 297.732 252.344 286.365 250.889 276.168C249.433 265.971 241.794 276.168 238.155 282.541C233.608 290.128 223.785 302.753 220.875 292.556C217.964 282.359 213.599 287.094 211.78 290.735C206.626 304.392 195.59 329.703 192.68 321.691C189.042 311.676 192.68 268.884 199.046 257.959C204.14 249.219 197.227 252.32 192.68 253.407L182.675 260.69Z" fill="black"/>
<path d="M340.021 288.914C343.659 294.741 340.365 298.893 337.95 299.552C327.945 302.284 331.583 309.567 340.678 305.015C347.954 301.373 350.066 294.09 348.207 290.735C342.497 280.433 348.207 278.612 374.33 264.955C398.887 253.12 403.182 250.101 433.449 240.373C460.734 232.444 463.279 230.642 440.977 235.198C396.411 244.302 350.935 272.526 345.478 275.258C340.021 277.989 335.474 281.631 340.021 288.914Z" fill="black"/>
<path d="M182.675 260.69C165.94 277.443 159.331 295.591 158.118 302.571C158.778 288.476 159.491 276.458 160.232 265.977C162.554 233.131 165.145 215.374 167.213 196.049C169.032 186.944 174.489 182.614 174.489 176.019C174.489 167.825 169.032 177.84 163.575 187.855L158.118 196.959C155.176 201.511 154.48 205.153 156.299 205.153C158.118 205.153 160.847 201.511 160.847 205.153C161.756 215.168 154.48 290.735 151.752 318.049C149.023 345.362 152.661 338.989 154.48 331.706C156.299 324.422 156.299 305.302 172.67 282.541C188.95 259.907 188.293 265.052 187.24 273.298L187.223 273.437C186.061 282.541 186.061 293.179 187.223 315.03C187.901 327.776 191.821 328.383 196.975 326.866C198.794 326.562 203.341 324.135 208.798 312.299C217.374 293.699 216.327 302.571 218.146 307.123C219.965 311.676 226.332 308.944 235.427 297.108C244.522 285.273 242.703 284.362 242.703 300.75C242.703 313.861 250.889 305.303 253.617 300.75C256.346 295.288 263.44 279.081 269.988 257.959C276.537 236.837 279.387 242.481 279.084 247.944C278.477 258.566 277.265 281.995 277.265 290.735C277.265 301.661 277.265 312.586 285.45 300.75C301.458 281.085 307.279 286.183 307.279 290.735C307.279 297.732 303.277 305.667 298.183 310.765C290.907 318.049 285.198 317.761 295.455 297.108C298.262 291.456 293.788 296.821 291.564 300.463C281.56 316.851 288.646 321.986 297.274 316.228C308.188 308.944 312.671 297.139 313.645 290.735C315.212 280.433 299.75 277.702 290.907 287.093C281.625 296.953 281.435 297.108 281.812 287.093C283.025 254.924 285.45 189.311 285.45 184.213C285.45 177.84 279.993 173.287 279.993 188.765C277.265 227.627 260.287 280.13 250.889 299.552C251.495 297.732 252.344 286.365 250.889 276.168C249.433 265.971 241.794 276.168 238.155 282.541C233.608 290.128 223.785 302.753 220.875 292.556C217.964 282.359 213.599 287.094 211.78 290.735C206.626 304.392 195.59 329.703 192.68 321.691C189.042 311.676 192.68 268.884 199.046 257.959C204.14 249.219 197.227 252.32 192.68 253.407L182.675 260.69Z" stroke="black"/>
<path d="M340.021 288.914C343.659 294.741 340.365 298.893 337.95 299.552C327.945 302.284 331.583 309.567 340.678 305.015C347.954 301.373 350.066 294.09 348.207 290.735C342.497 280.433 348.207 278.612 374.33 264.955C398.887 253.12 403.182 250.101 433.449 240.373C460.734 232.444 463.279 230.642 440.977 235.198C396.411 244.302 350.935 272.526 345.478 275.258C340.021 277.989 335.474 281.631 340.021 288.914Z" stroke="black"/>
<path d="M65.3477 268.884C61.7096 267.974 51.705 270.705 58.0716 276.168C67.844 283.649 144.428 269.02 182.68 260.708L192.68 253.415C107.053 271.532 68.5773 269.693 65.3477 268.884Z" fill="black" stroke="black"/>
</svg>
