<svg width="192" height="192" viewBox="0 0 192 192" fill="none" xmlns="http://www.w3.org/2000/svg">
<rect width="192" height="192" fill="white"/>
<path d="M68.1365 97.4818C61.7772 103.878 59.2657 110.807 58.8049 113.473C59.0557 108.091 59.3268 103.502 59.6083 99.5004C60.4904 86.9589 61.475 80.1793 62.2611 72.8004C62.9523 69.3241 65.026 67.6709 65.026 65.1526C65.026 62.024 62.9523 65.8479 60.8786 69.6718L58.8049 73.148C57.6867 74.8861 57.4225 76.2766 58.1137 76.2766C58.8049 76.2766 59.8418 74.8861 59.8418 76.2766C60.1874 80.1005 57.4225 108.953 56.3856 119.382C55.3488 129.811 56.7312 127.378 57.4225 124.597C58.1137 121.816 58.1137 114.515 64.3348 105.825C70.5211 97.1827 70.2715 99.1471 69.8714 102.295L69.8646 102.349C69.423 105.825 69.423 109.887 69.8646 118.23C70.1222 123.096 71.6119 123.328 73.5704 122.749C74.2616 122.633 75.9897 121.706 78.0634 117.187C81.3222 110.085 80.9243 113.473 81.6155 115.211C82.3068 116.949 84.7261 115.906 88.1822 111.387C91.6384 106.868 90.9472 106.52 90.9472 112.777C90.9472 117.783 94.0577 114.516 95.0945 112.777C96.1314 110.692 98.8272 104.504 101.316 96.4389C103.804 88.374 104.887 90.5293 104.772 92.615C104.541 96.6707 104.081 105.616 104.081 108.953C104.081 113.125 104.081 117.297 107.191 112.777C113.274 105.269 115.486 107.215 115.486 108.953C115.486 111.625 113.965 114.655 112.03 116.601C109.265 119.382 107.095 119.273 110.993 111.387C112.06 109.229 110.359 111.277 109.514 112.668C105.713 118.925 108.405 120.886 111.684 118.687C115.831 115.906 117.535 111.399 117.905 108.953C118.5 105.02 112.625 103.977 109.265 107.563C105.737 111.327 105.665 111.387 105.809 107.563C106.269 95.2802 107.191 70.2279 107.191 68.2812C107.191 65.8478 105.117 64.1097 105.117 70.0193C104.081 84.8576 97.6291 104.904 94.0577 112.32C94.2881 111.625 94.6107 107.285 94.0577 103.391C93.5047 99.498 90.6015 103.391 89.2191 105.825C87.491 108.722 83.7584 113.542 82.6524 109.649C81.5464 105.755 79.8875 107.563 79.1962 108.953C77.2377 114.168 73.0443 123.832 71.9383 120.773C70.5558 116.949 71.9383 100.61 74.3576 96.4389C76.2931 93.1017 73.6664 94.2857 71.9383 94.7008L68.1365 97.4818Z" fill="black"/>
<path d="M127.928 108.258C129.31 110.483 128.059 112.068 127.141 112.32C123.339 113.363 124.721 116.144 128.178 114.406C130.943 113.015 131.745 110.234 131.039 108.953C128.869 105.02 131.039 104.325 140.965 99.1102C150.297 94.5911 151.929 93.4385 163.43 89.7243C173.799 86.6966 174.766 86.0087 166.291 87.7483C149.356 91.2246 132.075 102.001 130.002 103.044C127.928 104.087 126.2 105.477 127.928 108.258Z" fill="black"/>
<path d="M68.1365 97.4818C61.7772 103.878 59.2657 110.807 58.8049 113.473C59.0557 108.091 59.3268 103.502 59.6083 99.5004C60.4904 86.9589 61.475 80.1793 62.2611 72.8004C62.9523 69.3241 65.026 67.6709 65.026 65.1526C65.026 62.024 62.9523 65.8479 60.8786 69.6718L58.8049 73.148C57.6867 74.8861 57.4225 76.2766 58.1137 76.2766C58.8049 76.2766 59.8418 74.8861 59.8418 76.2766C60.1874 80.1005 57.4225 108.953 56.3856 119.382C55.3488 129.811 56.7312 127.378 57.4225 124.597C58.1137 121.816 58.1137 114.515 64.3348 105.825C70.5211 97.1827 70.2715 99.1471 69.8714 102.295L69.8646 102.349C69.423 105.825 69.423 109.887 69.8646 118.23C70.1222 123.096 71.6119 123.328 73.5704 122.749C74.2616 122.633 75.9897 121.706 78.0634 117.187C81.3222 110.085 80.9243 113.473 81.6155 115.211C82.3068 116.949 84.7261 115.906 88.1822 111.387C91.6384 106.868 90.9472 106.52 90.9472 112.777C90.9472 117.783 94.0577 114.516 95.0945 112.777C96.1314 110.692 98.8272 104.504 101.316 96.4389C103.804 88.374 104.887 90.5293 104.772 92.615C104.541 96.6707 104.081 105.616 104.081 108.953C104.081 113.125 104.081 117.297 107.191 112.777C113.274 105.269 115.486 107.215 115.486 108.953C115.486 111.625 113.965 114.655 112.03 116.601C109.265 119.382 107.095 119.273 110.993 111.387C112.06 109.229 110.359 111.277 109.514 112.668C105.713 118.925 108.405 120.886 111.684 118.687C115.831 115.906 117.535 111.399 117.905 108.953C118.5 105.02 112.625 103.977 109.265 107.563C105.737 111.327 105.665 111.387 105.809 107.563C106.269 95.2802 107.191 70.2279 107.191 68.2812C107.191 65.8478 105.117 64.1097 105.117 70.0193C104.081 84.8576 97.6291 104.904 94.0577 112.32C94.2881 111.625 94.6107 107.285 94.0577 103.391C93.5047 99.498 90.6015 103.391 89.2191 105.825C87.491 108.722 83.7584 113.542 82.6524 109.649C81.5464 105.755 79.8875 107.563 79.1962 108.953C77.2377 114.168 73.0443 123.832 71.9383 120.773C70.5558 116.949 71.9383 100.61 74.3576 96.4389C76.2931 93.1017 73.6664 94.2857 71.9383 94.7008L68.1365 97.4818Z" stroke="black"/>
<path d="M127.928 108.258C129.31 110.483 128.059 112.068 127.141 112.32C123.339 113.363 124.721 116.144 128.178 114.406C130.943 113.015 131.745 110.234 131.039 108.953C128.869 105.02 131.039 104.325 140.965 99.1102C150.297 94.5911 151.929 93.4385 163.43 89.7243C173.799 86.6966 174.766 86.0087 166.291 87.7483C149.356 91.2246 132.075 102.001 130.002 103.044C127.928 104.087 126.2 105.477 127.928 108.258Z" stroke="black"/>
<path d="M23.5521 100.61C22.1697 100.263 18.3679 101.306 20.7872 103.392C24.5007 106.248 53.6027 100.662 68.1384 97.4885L71.9384 94.7041C39.4003 101.621 24.7794 100.919 23.5521 100.61Z" fill="black" stroke="black"/>
</svg>
